<?xml version="1.0" encoding="utf-8"?>
<svg viewBox="51.629 90.467 504.1182 57.651" width="504.1182" height="57.651" xmlns="http://www.w3.org/2000/svg">
  <defs>
    <filter id="editing-extrusion" x="-100%" y="-100%" width="300%" height="300%">
      <feFlood result="color1" flood-color="#444"/>
      <feConvolveMatrix order="8,8" divisor="1" kernelMatrix="1 0 0 0 0 0 0 0 0 1 0 0 0 0 0 0 0 0 1 0 0 0 0 0 0 0 0 1 0 0 0 0 0 0 0 0 1 0 0 0 0 0 0 0 0 1 0 0 0 0 0 0 0 0 1 0 0 0 0 0 0 0 0 1" in="SourceAlpha" result="extrude"/>
      <feComposite in="color1" in2="extrude" result="comp-extrude" operator="in"/>
      <feOffset dx="4" dy="4" in="comp-extrude" result="offset-extrude"/>
      <feMerge>
        <feMergeNode in="offset-extrude"/>
        <feMergeNode in="SourceGraphic"/>
      </feMerge>
    </filter>
  </defs>
  <path opacity=".5" d="M 60.035 137.464 L 85.912 122.76 L 78.986 118.523 L 60.4 129.539 L 60.035 129.331 L 60.035 137.464 Z" style="fill: rgb(176, 63, 119);" transform="matrix(1, 0, 0, 1, 0, 1.7763568394002505e-15)"/>
  <path d="M 60.035 110.049 L 60.035 138.178 L 51.652 133.943 L 51.652 105.474 L 60.035 110.049 Z" style="fill: rgb(141, 50, 95);" transform="matrix(1, 0, 0, 1, 0, 1.7763568394002505e-15)"/>
  <path d="M 77.508 139.61 L 59.41 130.256 L 52.282 134.086 L 77.746 148.015 L 77.87 147.943 L 77.508 139.61 Z" style="fill: rgb(98, 35, 66);" transform="matrix(1, 0, 0, 1, 0, 1.7763568394002505e-15)"/>
  <path opacity=".5" d="M 103.742 104.026 L 77.034 90.467 L 70.063 94.708 L 95.763 108.719 L 95.945 108.601 L 103.742 104.026 Z" style="fill: rgb(176, 63, 119);" transform="matrix(1, 0, 0, 1, 0, 1.7763568394002505e-15)"/>
  <path opacity=".5" d="M 77.692 90.866 C 77.559 90.774 77.299 90.634 77.173 90.538 C 77.172 90.537 77.104 90.48 77.299 90.583 C 77.305 90.586 77.039 90.524 77.034 90.522 L 69.847 94.941 L 69.648 124.283 L 78.03 119.506 L 78.03 91.044 C 77.911 90.994 77.794 90.936 77.692 90.866 Z" style="fill: rgb(176, 63, 119);" transform="matrix(1, 0, 0, 1, 0, 1.7763568394002505e-15)"/>
  <path d="M 77.558 119.681 L 103.742 104.094 L 95.89 100.129 L 77.928 111.332 L 77.558 111.115 L 77.558 119.681 Z" style="fill: rgb(173, 62, 117);" transform="matrix(1, 0, 0, 1, 0, 1.7763568394002505e-15)"/>
  <path opacity=".5" d="M 60.179 109.047 L 84.738 94.407 L 77.104 90.479 L 59.352 101.217 L 58.633 101.594 L 58.992 108.405 C 59.479 108.517 59.874 108.745 60.179 109.047 Z M 103.742 133.401 L 103.742 104.095 L 95.558 108.965 L 95.358 138.178 L 103.742 133.401 Z" style="fill: rgb(176, 63, 119);" transform="matrix(1, 0, 0, 1, 0, 1.7763568394002505e-15)"/>
  <path opacity=".5" d="M 77.864 148.055 L 103.742 133.349 L 96.573 129.136 L 78.229 140.127 L 77.864 139.921 L 77.864 148.055 Z" style="fill: rgb(176, 63, 119);" transform="matrix(1, 0, 0, 1, 0, 1.7763568394002505e-15)"/>
  <path opacity=".5" d="M 96.912 137.23 L 103.742 133.402 L 79.169 118.783 L 71.808 122.172 L 96.179 137.647 C 96.432 137.419 96.55 137.339 96.912 137.23 Z" style="fill: rgb(176, 63, 119);" transform="matrix(1, 0, 0, 1, 0, 1.7763568394002505e-15)"/>
  <path opacity=".5" d="M 86.247 143.413 L 86.247 114.486 L 78.064 119.382 L 77.864 148.118 L 86.247 143.413 Z" style="fill: rgb(176, 63, 119);" transform="matrix(1, 0, 0, 1, 0, 1.7763568394002505e-15)"/>
  <path d="M 77.553 111.053 L 58.888 101.45 L 51.629 105.534 L 77.848 119.891 L 78.03 119.774 L 77.553 111.053 Z" style="fill: rgb(173, 62, 117);" transform="matrix(1, 0, 0, 1, 0, 1.7763568394002505e-15)"/>
  <path d="M 78.008 119.377 L 78.03 148.015 L 69.648 143.633 L 69.648 115.31 L 78.008 119.377 Z" style="fill: rgb(173, 62, 117);" transform="matrix(1, 0, 0, 1, 0, 1.7763568394002505e-15)"/>
  <g filter="url(#editing-extrusion)" transform="matrix(0.7007260322570801, 0, 0, 0.7007260322570801, 101.06996154785158, 63.61237335205078)" style="">
    <g transform="translate(18.22498321533203, 98.29500007629395)">
      <path d="M27.26 0.19L10.11 0.19L10.11 0.19Q7.36 0.19 5.76-1.41L5.76-1.41L5.76-1.41Q4.16-3.01 4.16-5.76L4.16-5.76L4.16-38.85L4.16-38.85Q4.86-38.98 6.40-39.20L6.40-39.20L6.40-39.20Q7.94-39.42 9.34-39.42L9.34-39.42L9.34-39.42Q10.82-39.42 11.94-39.20L11.94-39.20L11.94-39.20Q13.06-38.98 13.82-38.40L13.82-38.40L13.82-38.40Q14.59-37.82 14.98-36.80L14.98-36.80L14.98-36.80Q15.36-35.78 15.36-34.11L15.36-34.11L15.36-8.83L30.02-8.83L30.02-8.83Q30.46-8.13 30.85-6.94L30.85-6.94L30.85-6.94Q31.23-5.76 31.23-4.48L31.23-4.48L31.23-4.48Q31.23-1.92 30.14-0.86L30.14-0.86L30.14-0.86Q29.06 0.19 27.26 0.19L27.26 0.19ZM52.61 1.02L52.61 1.02L52.61 1.02Q48.83 1.02 45.60-0.03L45.60-0.03L45.60-0.03Q42.37-1.09 39.97-3.20L39.97-3.20L39.97-3.20Q37.57-5.31 36.19-8.51L36.19-8.51L36.19-8.51Q34.82-11.71 34.82-16L34.82-16L34.82-16Q34.82-20.22 36.19-23.26L36.19-23.26L36.19-23.26Q37.57-26.30 39.81-28.26L39.81-28.26L39.81-28.26Q42.05-30.21 44.93-31.14L44.93-31.14L44.93-31.14Q47.81-32.06 50.82-32.06L50.82-32.06L50.82-32.06Q54.21-32.06 56.99-31.04L56.99-31.04L56.99-31.04Q59.78-30.02 61.79-28.22L61.79-28.22L61.79-28.22Q63.81-26.43 64.93-23.94L64.93-23.94L64.93-23.94Q66.05-21.44 66.05-18.50L66.05-18.50L66.05-18.50Q66.05-16.32 64.83-15.17L64.83-15.17L64.83-15.17Q63.62-14.02 61.44-13.70L61.44-13.70L45.63-11.33L45.63-11.33Q46.34-9.22 48.51-8.16L48.51-8.16L48.51-8.16Q50.69-7.10 53.50-7.10L53.50-7.10L53.50-7.10Q56.13-7.10 58.46-7.78L58.46-7.78L58.46-7.78Q60.80-8.45 62.27-9.34L62.27-9.34L62.27-9.34Q63.30-8.70 64-7.55L64-7.55L64-7.55Q64.70-6.40 64.70-5.12L64.70-5.12L64.70-5.12Q64.70-2.24 62.02-0.83L62.02-0.83L62.02-0.83Q59.97 0.26 57.41 0.64L57.41 0.64L57.41 0.64Q54.85 1.02 52.61 1.02ZM50.82-24.13L50.82-24.13L50.82-24.13Q49.28-24.13 48.16-23.62L48.16-23.62L48.16-23.62Q47.04-23.10 46.34-22.30L46.34-22.30L46.34-22.30Q45.63-21.50 45.28-20.51L45.28-20.51L45.28-20.51Q44.93-19.52 44.86-18.50L44.86-18.50L55.81-20.29L55.81-20.29Q55.62-21.57 54.40-22.85L54.40-22.85L54.40-22.85Q53.18-24.13 50.82-24.13ZM84.61-6.91L84.61-6.91L84.61-6.91Q85.70-6.91 87.01-7.14L87.01-7.14L87.01-7.14Q88.32-7.36 88.96-7.74L88.96-7.74L88.96-12.86L84.35-12.48L84.35-12.48Q82.56-12.35 81.41-11.71L81.41-11.71L81.41-11.71Q80.26-11.07 80.26-9.79L80.26-9.79L80.26-9.79Q80.26-8.51 81.25-7.71L81.25-7.71L81.25-7.71Q82.24-6.91 84.61-6.91ZM84.10-32.06L84.10-32.06L84.10-32.06Q87.55-32.06 90.40-31.36L90.40-31.36L90.40-31.36Q93.25-30.66 95.26-29.22L95.26-29.22L95.26-29.22Q97.28-27.78 98.37-25.57L98.37-25.57L98.37-25.57Q99.46-23.36 99.46-20.35L99.46-20.35L99.46-6.02L99.46-6.02Q99.46-4.35 98.53-3.30L98.53-3.30L98.53-3.30Q97.60-2.24 96.32-1.47L96.32-1.47L96.32-1.47Q92.16 1.02 84.61 1.02L84.61 1.02L84.61 1.02Q81.22 1.02 78.50 0.38L78.50 0.38L78.50 0.38Q75.78-0.26 73.82-1.54L73.82-1.54L73.82-1.54Q71.87-2.82 70.82-4.80L70.82-4.80L70.82-4.80Q69.76-6.78 69.76-9.41L69.76-9.41L69.76-9.41Q69.76-13.82 72.38-16.19L72.38-16.19L72.38-16.19Q75.01-18.56 80.51-19.14L80.51-19.14L88.90-20.03L88.90-20.48L88.90-20.48Q88.90-22.34 87.26-23.14L87.26-23.14L87.26-23.14Q85.63-23.94 82.56-23.94L82.56-23.94L82.56-23.94Q80.13-23.94 77.82-23.42L77.82-23.42L77.82-23.42Q75.52-22.91 73.66-22.14L73.66-22.14L73.66-22.14Q72.83-22.72 72.26-23.90L72.26-23.90L72.26-23.90Q71.68-25.09 71.68-26.37L71.68-26.37L71.68-26.37Q71.68-28.03 72.48-29.02L72.48-29.02L72.48-29.02Q73.28-30.02 74.94-30.72L74.94-30.72L74.94-30.72Q76.80-31.42 79.33-31.74L79.33-31.74L79.33-31.74Q81.86-32.06 84.10-32.06ZM116.99-21.89L116.99-0.06L116.99-0.06Q116.35 0.13 114.98 0.32L114.98 0.32L114.98 0.32Q113.60 0.51 112.13 0.51L112.13 0.51L112.13 0.51Q110.72 0.51 109.60 0.32L109.60 0.32L109.60 0.32Q108.48 0.13 107.71-0.45L107.71-0.45L107.71-0.45Q106.94-1.02 106.53-2.02L106.53-2.02L106.53-2.02Q106.11-3.01 106.11-4.61L106.11-4.61L106.11-23.81L106.11-23.81Q106.11-25.28 106.66-26.34L106.66-26.34L106.66-26.34Q107.20-27.39 108.22-28.22L108.22-28.22L108.22-28.22Q109.25-29.06 110.75-29.73L110.75-29.73L110.75-29.73Q112.26-30.40 113.98-30.91L113.98-30.91L113.98-30.91Q115.71-31.42 117.57-31.71L117.57-31.71L117.57-31.71Q119.42-32 121.28-32L121.28-32L121.28-32Q124.35-32 126.14-30.82L126.14-30.82L126.14-30.82Q127.94-29.63 127.94-26.94L127.94-26.94L127.94-26.94Q127.94-26.05 127.68-25.18L127.68-25.18L127.68-25.18Q127.42-24.32 127.04-23.62L127.04-23.62L127.04-23.62Q125.70-23.62 124.29-23.49L124.29-23.49L124.29-23.49Q122.88-23.36 121.54-23.10L121.54-23.10L121.54-23.10Q120.19-22.85 119.01-22.56L119.01-22.56L119.01-22.56Q117.82-22.27 116.99-21.89L116.99-21.89ZM152.13-4.61L152.13-19.71L152.13-19.71Q152.13-21.70 151.01-22.62L151.01-22.62L151.01-22.62Q149.89-23.55 147.97-23.55L147.97-23.55L147.97-23.55Q146.69-23.55 145.44-23.23L145.44-23.23L145.44-23.23Q144.19-22.91 143.30-22.27L143.30-22.27L143.30-0.06L143.30-0.06Q142.66 0.13 141.28 0.32L141.28 0.32L141.28 0.32Q139.90 0.51 138.43 0.51L138.43 0.51L138.43 0.51Q137.02 0.51 135.90 0.32L135.90 0.32L135.90 0.32Q134.78 0.13 134.02-0.45L134.02-0.45L134.02-0.45Q133.25-1.02 132.83-2.02L132.83-2.02L132.83-2.02Q132.42-3.01 132.42-4.61L132.42-4.61L132.42-23.81L132.42-23.81Q132.42-25.54 133.15-26.62L133.15-26.62L133.15-26.62Q133.89-27.71 135.17-28.61L135.17-28.61L135.17-28.61Q137.34-30.14 140.64-31.10L140.64-31.10L140.64-31.10Q143.94-32.06 147.97-32.06L147.97-32.06L147.97-32.06Q155.20-32.06 159.10-28.90L159.10-28.90L159.10-28.90Q163.01-25.73 163.01-20.10L163.01-20.10L163.01-0.06L163.01-0.06Q162.37 0.13 160.99 0.32L160.99 0.32L160.99 0.32Q159.62 0.51 158.14 0.51L158.14 0.51L158.14 0.51Q156.74 0.51 155.62 0.32L155.62 0.32L155.62 0.32Q154.50 0.13 153.73-0.45L153.73-0.45L153.73-0.45Q152.96-1.02 152.54-2.02L152.54-2.02L152.54-2.02Q152.13-3.01 152.13-4.61L152.13-4.61ZM178.37-29.82L168.77-29.82L168.77-29.82Q168.32-30.53 167.94-31.74L167.94-31.74L167.94-31.74Q167.55-32.96 167.55-34.30L167.55-34.30L167.55-34.30Q167.55-36.80 168.67-37.89L168.67-37.89L168.67-37.89Q169.79-38.98 171.58-38.98L171.58-38.98L199.49-38.98L199.49-38.98Q199.94-38.27 200.32-37.06L200.32-37.06L200.32-37.06Q200.70-35.84 200.70-34.50L200.70-34.50L200.70-34.50Q200.70-32 199.58-30.91L199.58-30.91L199.58-30.91Q198.46-29.82 196.67-29.82L196.67-29.82L189.57-29.82L189.57-0.26L189.57-0.26Q188.86-0.06 187.36 0.13L187.36 0.13L187.36 0.13Q185.86 0.32 184.38 0.32L184.38 0.32L184.38 0.32Q182.91 0.32 181.79 0.10L181.79 0.10L181.79 0.10Q180.67-0.13 179.90-0.70L179.90-0.70L179.90-0.70Q179.14-1.28 178.75-2.30L178.75-2.30L178.75-2.30Q178.37-3.33 178.37-4.99L178.37-4.99L178.37-29.82ZM236.03-19.46L236.03-0.06L236.03-0.06Q235.39 0.13 234.02 0.32L234.02 0.32L234.02 0.32Q232.64 0.51 231.17 0.51L231.17 0.51L231.17 0.51Q229.76 0.51 228.64 0.32L228.64 0.32L228.64 0.32Q227.52 0.13 226.75-0.45L226.75-0.45L226.75-0.45Q225.98-1.02 225.57-2.02L225.57-2.02L225.57-2.02Q225.15-3.01 225.15-4.61L225.15-4.61L225.15-18.82L225.15-18.82Q225.15-21.44 223.84-22.50L223.84-22.50L223.84-22.50Q222.53-23.55 220.61-23.55L220.61-23.55L220.61-23.55Q219.33-23.55 218.18-23.23L218.18-23.23L218.18-23.23Q217.02-22.91 216.32-22.46L216.32-22.46L216.32-0.06L216.32-0.06Q215.68 0.13 214.30 0.32L214.30 0.32L214.30 0.32Q212.93 0.51 211.46 0.51L211.46 0.51L211.46 0.51Q210.05 0.51 208.93 0.32L208.93 0.32L208.93 0.32Q207.81 0.13 207.04-0.45L207.04-0.45L207.04-0.45Q206.27-1.02 205.86-2.02L205.86-2.02L205.86-2.02Q205.44-3.01 205.44-4.61L205.44-4.61L205.44-41.73L205.44-41.73Q206.14-41.86 207.52-42.08L207.52-42.08L207.52-42.08Q208.90-42.30 210.30-42.30L210.30-42.30L210.30-42.30Q211.71-42.30 212.83-42.11L212.83-42.11L212.83-42.11Q213.95-41.92 214.72-41.34L214.72-41.34L214.72-41.34Q215.49-40.77 215.90-39.78L215.90-39.78L215.90-39.78Q216.32-38.78 216.32-37.18L216.32-37.18L216.32-30.91L216.32-30.91Q217.15-31.23 218.85-31.65L218.85-31.65L218.85-31.65Q220.54-32.06 222.59-32.06L222.59-32.06L222.59-32.06Q228.93-32.06 232.48-28.90L232.48-28.90L232.48-28.90Q236.03-25.73 236.03-19.46L236.03-19.46ZM259.20 1.02L259.20 1.02L259.20 1.02Q255.42 1.02 252.19-0.03L252.19-0.03L252.19-0.03Q248.96-1.09 246.56-3.20L246.56-3.20L246.56-3.20Q244.16-5.31 242.78-8.51L242.78-8.51L242.78-8.51Q241.41-11.71 241.41-16L241.41-16L241.41-16Q241.41-20.22 242.78-23.26L242.78-23.26L242.78-23.26Q244.16-26.30 246.40-28.26L246.40-28.26L246.40-28.26Q248.64-30.21 251.52-31.14L251.52-31.14L251.52-31.14Q254.40-32.06 257.41-32.06L257.41-32.06L257.41-32.06Q260.80-32.06 263.58-31.04L263.58-31.04L263.58-31.04Q266.37-30.02 268.38-28.22L268.38-28.22L268.38-28.22Q270.40-26.43 271.52-23.94L271.52-23.94L271.52-23.94Q272.64-21.44 272.64-18.50L272.64-18.50L272.64-18.50Q272.64-16.32 271.42-15.17L271.42-15.17L271.42-15.17Q270.21-14.02 268.03-13.70L268.03-13.70L252.22-11.33L252.22-11.33Q252.93-9.22 255.10-8.16L255.10-8.16L255.10-8.16Q257.28-7.10 260.10-7.10L260.10-7.10L260.10-7.10Q262.72-7.10 265.06-7.78L265.06-7.78L265.06-7.78Q267.39-8.45 268.86-9.34L268.86-9.34L268.86-9.34Q269.89-8.70 270.59-7.55L270.59-7.55L270.59-7.55Q271.30-6.40 271.30-5.12L271.30-5.12L271.30-5.12Q271.30-2.24 268.61-0.83L268.61-0.83L268.61-0.83Q266.56 0.26 264.00 0.64L264.00 0.64L264.00 0.64Q261.44 1.02 259.20 1.02ZM257.41-24.13L257.41-24.13L257.41-24.13Q255.87-24.13 254.75-23.62L254.75-23.62L254.75-23.62Q253.63-23.10 252.93-22.30L252.93-22.30L252.93-22.30Q252.22-21.50 251.87-20.51L251.87-20.51L251.87-20.51Q251.52-19.52 251.46-18.50L251.46-18.50L262.40-20.29L262.40-20.29Q262.21-21.57 260.99-22.85L260.99-22.85L260.99-22.85Q259.78-24.13 257.41-24.13ZM289.60-15.81L289.60-8L289.60-8Q290.50-7.74 291.90-7.65L291.90-7.65L291.90-7.65Q293.31-7.55 294.59-7.55L294.59-7.55L294.59-7.55Q297.15-7.55 298.85-8.61L298.85-8.61L298.85-8.61Q300.54-9.66 300.54-11.90L300.54-11.90L300.54-11.90Q300.54-14.02 299.14-14.91L299.14-14.91L299.14-14.91Q297.73-15.81 294.85-15.81L294.85-15.81L289.60-15.81ZM289.60-31.17L289.60-23.62L294.27-23.62L294.27-23.62Q297.02-23.62 298.27-24.64L298.27-24.64L298.27-24.64Q299.52-25.66 299.52-27.65L299.52-27.65L299.52-27.65Q299.52-29.38 298.08-30.40L298.08-30.40L298.08-30.40Q296.64-31.42 293.76-31.42L293.76-31.42L293.76-31.42Q292.80-31.42 291.55-31.36L291.55-31.36L291.55-31.36Q290.30-31.30 289.60-31.17L289.60-31.17ZM293.76 1.02L293.76 1.02L293.76 1.02Q292.67 1.02 291.20 0.96L291.20 0.96L291.20 0.96Q289.73 0.90 288.16 0.70L288.16 0.70L288.16 0.70Q286.59 0.51 285.06 0.22L285.06 0.22L285.06 0.22Q283.52-0.06 282.24-0.58L282.24-0.58L282.24-0.58Q278.72-1.92 278.72-5.25L278.72-5.25L278.72-35.14L278.72-35.14Q278.72-36.48 279.46-37.22L279.46-37.22L279.46-37.22Q280.19-37.95 281.47-38.40L281.47-38.40L281.47-38.40Q283.65-39.17 286.91-39.52L286.91-39.52L286.91-39.52Q290.18-39.87 293.63-39.87L293.63-39.87L293.63-39.87Q301.82-39.87 306.24-37.12L306.24-37.12L306.24-37.12Q310.66-34.37 310.66-28.61L310.66-28.61L310.66-28.61Q310.66-25.73 308.99-23.65L308.99-23.65L308.99-23.65Q307.33-21.57 304.51-20.61L304.51-20.61L304.51-20.61Q307.71-19.71 309.86-17.34L309.86-17.34L309.86-17.34Q312.00-14.98 312.00-11.39L312.00-11.39L312.00-11.39Q312.00-5.06 307.30-2.02L307.30-2.02L307.30-2.02Q302.59 1.02 293.76 1.02ZM330.82-6.91L330.82-6.91L330.82-6.91Q331.90-6.91 333.22-7.14L333.22-7.14L333.22-7.14Q334.53-7.36 335.17-7.74L335.17-7.74L335.17-12.86L330.56-12.48L330.56-12.48Q328.77-12.35 327.62-11.71L327.62-11.71L327.62-11.71Q326.46-11.07 326.46-9.79L326.46-9.79L326.46-9.79Q326.46-8.51 327.46-7.71L327.46-7.71L327.46-7.71Q328.45-6.91 330.82-6.91ZM330.30-32.06L330.30-32.06L330.30-32.06Q333.76-32.06 336.61-31.36L336.61-31.36L336.61-31.36Q339.46-30.66 341.47-29.22L341.47-29.22L341.47-29.22Q343.49-27.78 344.58-25.57L344.58-25.57L344.58-25.57Q345.66-23.36 345.66-20.35L345.66-20.35L345.66-6.02L345.66-6.02Q345.66-4.35 344.74-3.30L344.74-3.30L344.74-3.30Q343.81-2.24 342.53-1.47L342.53-1.47L342.53-1.47Q338.37 1.02 330.82 1.02L330.82 1.02L330.82 1.02Q327.42 1.02 324.70 0.38L324.70 0.38L324.70 0.38Q321.98-0.26 320.03-1.54L320.03-1.54L320.03-1.54Q318.08-2.82 317.02-4.80L317.02-4.80L317.02-4.80Q315.97-6.78 315.97-9.41L315.97-9.41L315.97-9.41Q315.97-13.82 318.59-16.19L318.59-16.19L318.59-16.19Q321.22-18.56 326.72-19.14L326.72-19.14L335.10-20.03L335.10-20.48L335.10-20.48Q335.10-22.34 333.47-23.14L333.47-23.14L333.47-23.14Q331.84-23.94 328.77-23.94L328.77-23.94L328.77-23.94Q326.34-23.94 324.03-23.42L324.03-23.42L324.03-23.42Q321.73-22.91 319.87-22.14L319.87-22.14L319.87-22.14Q319.04-22.72 318.46-23.90L318.46-23.90L318.46-23.90Q317.89-25.09 317.89-26.37L317.89-26.37L317.89-26.37Q317.89-28.03 318.69-29.02L318.69-29.02L318.69-29.02Q319.49-30.02 321.15-30.72L321.15-30.72L321.15-30.72Q323.01-31.42 325.54-31.74L325.54-31.74L325.54-31.74Q328.06-32.06 330.30-32.06ZM378.56-9.28L378.56-9.28L378.56-9.28Q378.56-4.42 374.91-1.66L374.91-1.66L374.91-1.66Q371.26 1.09 364.16 1.09L364.16 1.09L364.16 1.09Q361.47 1.09 359.17 0.70L359.17 0.70L359.17 0.70Q356.86 0.32 355.23-0.48L355.23-0.48L355.23-0.48Q353.60-1.28 352.67-2.50L352.67-2.50L352.67-2.50Q351.74-3.71 351.74-5.38L351.74-5.38L351.74-5.38Q351.74-6.91 352.38-7.97L352.38-7.97L352.38-7.97Q353.02-9.02 353.92-9.73L353.92-9.73L353.92-9.73Q355.78-8.70 358.18-7.90L358.18-7.90L358.18-7.90Q360.58-7.10 363.71-7.10L363.71-7.10L363.71-7.10Q365.70-7.10 366.75-7.68L366.75-7.68L366.75-7.68Q367.81-8.26 367.81-9.22L367.81-9.22L367.81-9.22Q367.81-10.11 367.04-10.62L367.04-10.62L367.04-10.62Q366.27-11.14 364.48-11.46L364.48-11.46L362.56-11.84L362.56-11.84Q356.99-12.93 354.27-15.26L354.27-15.26L354.27-15.26Q351.55-17.60 351.55-21.95L351.55-21.95L351.55-21.95Q351.55-24.32 352.58-26.24L352.58-26.24L352.58-26.24Q353.60-28.16 355.46-29.44L355.46-29.44L355.46-29.44Q357.31-30.72 359.90-31.42L359.90-31.42L359.90-31.42Q362.50-32.13 365.63-32.13L365.63-32.13L365.63-32.13Q368.00-32.13 370.08-31.78L370.08-31.78L370.08-31.78Q372.16-31.42 373.70-30.72L373.70-30.72L373.70-30.72Q375.23-30.02 376.13-28.90L376.13-28.90L376.13-28.90Q377.02-27.78 377.02-26.24L377.02-26.24L377.02-26.24Q377.02-24.77 376.48-23.71L376.48-23.71L376.48-23.71Q375.94-22.66 375.10-21.95L375.10-21.95L375.10-21.95Q374.59-22.27 373.57-22.62L373.57-22.62L373.57-22.62Q372.54-22.98 371.33-23.26L371.33-23.26L371.33-23.26Q370.11-23.55 368.86-23.74L368.86-23.74L368.86-23.74Q367.62-23.94 366.59-23.94L366.59-23.94L366.59-23.94Q364.48-23.94 363.33-23.46L363.33-23.46L363.33-23.46Q362.18-22.98 362.18-21.95L362.18-21.95L362.18-21.95Q362.18-21.25 362.82-20.80L362.82-20.80L362.82-20.80Q363.46-20.35 365.25-19.97L365.25-19.97L367.23-19.52L367.23-19.52Q373.38-18.11 375.97-15.65L375.97-15.65L375.97-15.65Q378.56-13.18 378.56-9.28ZM383.55-39.74L383.55-39.74L383.55-39.74Q383.55-42.18 385.18-43.84L385.18-43.84L385.18-43.84Q386.82-45.50 389.50-45.50L389.50-45.50L389.50-45.50Q392.19-45.50 393.82-43.84L393.82-43.84L393.82-43.84Q395.46-42.18 395.46-39.74L395.46-39.74L395.46-39.74Q395.46-37.31 393.82-35.65L393.82-35.65L393.82-35.65Q392.19-33.98 389.50-33.98L389.50-33.98L389.50-33.98Q386.82-33.98 385.18-35.65L385.18-35.65L385.18-35.65Q383.55-37.31 383.55-39.74ZM394.94-26.11L394.94-0.06L394.94-0.06Q394.24 0.06 392.86 0.29L392.86 0.29L392.86 0.29Q391.49 0.51 390.08 0.51L390.08 0.51L390.08 0.51Q388.67 0.51 387.55 0.32L387.55 0.32L387.55 0.32Q386.43 0.13 385.66-0.45L385.66-0.45L385.66-0.45Q384.90-1.02 384.48-2.02L384.48-2.02L384.48-2.02Q384.06-3.01 384.06-4.61L384.06-4.61L384.06-30.66L384.06-30.66Q384.77-30.78 386.14-31.01L386.14-31.01L386.14-31.01Q387.52-31.23 388.93-31.23L388.93-31.23L388.93-31.23Q390.34-31.23 391.46-31.04L391.46-31.04L391.46-31.04Q392.58-30.85 393.34-30.27L393.34-30.27L393.34-30.27Q394.11-29.70 394.53-28.70L394.53-28.70L394.53-28.70Q394.94-27.71 394.94-26.11L394.94-26.11ZM419.39-23.49L419.39-23.49L419.39-23.49Q417.79-23.49 416.35-22.98L416.35-22.98L416.35-22.98Q414.91-22.46 413.86-21.47L413.86-21.47L413.86-21.47Q412.80-20.48 412.16-19.01L412.16-19.01L412.16-19.01Q411.52-17.54 411.52-15.55L411.52-15.55L411.52-15.55Q411.52-11.58 413.79-9.60L413.79-9.60L413.79-9.60Q416.06-7.62 419.33-7.62L419.33-7.62L419.33-7.62Q421.25-7.62 422.66-8.06L422.66-8.06L422.66-8.06Q424.06-8.51 425.15-9.02L425.15-9.02L425.15-9.02Q426.43-8.13 427.07-7.07L427.07-7.07L427.07-7.07Q427.71-6.02 427.71-4.54L427.71-4.54L427.71-4.54Q427.71-1.92 425.22-0.48L425.22-0.48L425.22-0.48Q422.72 0.96 418.30 0.96L418.30 0.96L418.30 0.96Q414.27 0.96 411.01-0.22L411.01-0.22L411.01-0.22Q407.74-1.41 405.41-3.55L405.41-3.55L405.41-3.55Q403.07-5.70 401.79-8.70L401.79-8.70L401.79-8.70Q400.51-11.71 400.51-15.36L400.51-15.36L400.51-15.36Q400.51-19.58 401.89-22.75L401.89-22.75L401.89-22.75Q403.26-25.92 405.63-27.97L405.63-27.97L405.63-27.97Q408.00-30.02 411.10-31.04L411.10-31.04L411.10-31.04Q414.21-32.06 417.66-32.06L417.66-32.06L417.66-32.06Q422.27-32.06 424.77-30.40L424.77-30.40L424.77-30.40Q427.26-28.74 427.26-26.11L427.26-26.11L427.26-26.11Q427.26-24.90 426.69-23.84L426.69-23.84L426.69-23.84Q426.11-22.78 425.34-22.02L425.34-22.02L425.34-22.02Q424.26-22.53 422.72-23.01L422.72-23.01L422.72-23.01Q421.18-23.49 419.39-23.49ZM459.39-9.28L459.39-9.28L459.39-9.28Q459.39-4.42 455.74-1.66L455.74-1.66L455.74-1.66Q452.10 1.09 444.99 1.09L444.99 1.09L444.99 1.09Q442.30 1.09 440.00 0.70L440.00 0.70L440.00 0.70Q437.70 0.32 436.06-0.48L436.06-0.48L436.06-0.48Q434.43-1.28 433.50-2.50L433.50-2.50L433.50-2.50Q432.58-3.71 432.58-5.38L432.58-5.38L432.58-5.38Q432.58-6.91 433.22-7.97L433.22-7.97L433.22-7.97Q433.86-9.02 434.75-9.73L434.75-9.73L434.75-9.73Q436.61-8.70 439.01-7.90L439.01-7.90L439.01-7.90Q441.41-7.10 444.54-7.10L444.54-7.10L444.54-7.10Q446.53-7.10 447.58-7.68L447.58-7.68L447.58-7.68Q448.64-8.26 448.64-9.22L448.64-9.22L448.64-9.22Q448.64-10.11 447.87-10.62L447.87-10.62L447.87-10.62Q447.10-11.14 445.31-11.46L445.31-11.46L443.39-11.84L443.39-11.84Q437.82-12.93 435.10-15.26L435.10-15.26L435.10-15.26Q432.38-17.60 432.38-21.95L432.38-21.95L432.38-21.95Q432.38-24.32 433.41-26.24L433.41-26.24L433.41-26.24Q434.43-28.16 436.29-29.44L436.29-29.44L436.29-29.44Q438.14-30.72 440.74-31.42L440.74-31.42L440.74-31.42Q443.33-32.13 446.46-32.13L446.46-32.13L446.46-32.13Q448.83-32.13 450.91-31.78L450.91-31.78L450.91-31.78Q452.99-31.42 454.53-30.72L454.53-30.72L454.53-30.72Q456.06-30.02 456.96-28.90L456.96-28.90L456.96-28.90Q457.86-27.78 457.86-26.24L457.86-26.24L457.86-26.24Q457.86-24.77 457.31-23.71L457.31-23.71L457.31-23.71Q456.77-22.66 455.94-21.95L455.94-21.95L455.94-21.95Q455.42-22.27 454.40-22.62L454.40-22.62L454.40-22.62Q453.38-22.98 452.16-23.26L452.16-23.26L452.16-23.26Q450.94-23.55 449.70-23.74L449.70-23.74L449.70-23.74Q448.45-23.94 447.42-23.94L447.42-23.94L447.42-23.94Q445.31-23.94 444.16-23.46L444.16-23.46L444.16-23.46Q443.01-22.98 443.01-21.95L443.01-21.95L443.01-21.95Q443.01-21.25 443.65-20.80L443.65-20.80L443.65-20.80Q444.29-20.35 446.08-19.97L446.08-19.97L448.06-19.52L448.06-19.52Q454.21-18.11 456.80-15.65L456.80-15.65L456.80-15.65Q459.39-13.18 459.39-9.28Z" style="fill: rgb(230, 199, 156);"/>
    </g>
  </g>
</svg>