<svg
 xmlns="http://www.w3.org/2000/svg" viewBox="0 0 841.9 595.3"><g><path d="M1.11 0L15.12 0 15.12-1.58 2.68-1.58 2.68-14.03 1.11-14.03ZM16.15-8.93L16.15-2.35C16.15-1.07 17.21 0 18.5 0L27.64 0 27.64-1.6 18.5-1.6C18.09-1.6 17.74-1.94 17.74-2.35L17.74-4.84 27.64-4.84 27.64-8.93C27.64-10.23 26.57-11.28 25.27-11.28L18.5-11.28C17.21-11.28 16.15-10.22 16.15-8.93ZM18.5-9.69L25.27-9.69C25.68-9.69 26.03-9.34 26.03-8.93L26.03-6.44 17.74-6.44 17.74-8.93C17.74-9.34 18.09-9.69 18.5-9.69ZM39.51-8.93L39.51-6.44 29.63-6.44 29.63-2.35C29.63-1.07 30.69 0 31.98 0L41.12 0 41.12-8.93C41.12-10.23 40.05-11.28 38.75-11.28L29.63-11.28 29.63-9.69 38.75-9.69C39.16-9.69 39.51-9.34 39.51-8.93ZM31.22-2.35L31.22-4.84 39.51-4.84 39.51-1.6 31.98-1.6C31.57-1.6 31.22-1.94 31.22-2.35ZM43.03-8.93L43.03 0 44.63 0 44.63-8.93C44.63-9.34 44.97-9.69 45.38-9.69L51.73-9.69 51.73-11.28 45.38-11.28C44.1-11.28 43.03-10.22 43.03-8.93ZM55.4-9.69L62.17-9.69C62.58-9.69 62.93-9.34 62.93-8.93L62.93 0 64.53 0 64.53-8.93C64.53-10.22 63.46-11.28 62.17-11.28L53.03-11.28 53.03 0 54.62 0 54.62-8.93C54.62-9.34 54.99-9.69 55.4-9.69ZM65.91-14.01L65.91-12.43 72.13-12.43 72.13 0 73.71 0 73.71-12.43 79.91-12.43 79.91-14.01ZM83.71-9.69L90.48-9.69C90.89-9.69 91.24-9.34 91.24-8.93L91.24 0 92.83 0 92.83-8.93C92.83-10.22 91.76-11.28 90.48-11.28L82.93-11.28 82.93-14.98 81.33-14.98 81.33 0 82.93 0 82.93-8.93C82.93-9.34 83.3-9.69 83.71-9.69ZM94.27-8.93L94.27-2.35C94.27-1.07 95.34 0 96.62 0L105.77 0 105.77-1.6 96.62-1.6C96.21-1.6 95.87-1.94 95.87-2.35L95.87-4.84 105.77-4.84 105.77-8.93C105.77-10.23 104.7-11.28 103.39-11.28L96.62-11.28C95.34-11.28 94.27-10.22 94.27-8.93ZM96.62-9.69L103.39-9.69C103.8-9.69 104.15-9.34 104.15-8.93L104.15-6.44 95.87-6.44 95.87-8.93C95.87-9.34 96.21-9.69 96.62-9.69ZM118.96-14.01L107.89-14.01 107.89 0 119.56 0C120.85 0 121.89-1.05 121.89-2.33L121.89-5.6C121.89-6.28 121.63-6.85 121.12-7.33L121.04-7.66C121.21-8 121.29-8.35 121.29-8.7L121.29-11.67C121.29-12.96 120.24-14.01 118.96-14.01ZM119.7-11.67L119.7-8.7C119.7-8.28 119.37-7.94 118.96-7.94L110.22-7.94C109.81-7.94 109.46-8.28 109.46-8.7L109.46-11.67C109.46-12.08 109.81-12.43 110.22-12.43L118.96-12.43C119.37-12.43 119.7-12.08 119.7-11.67ZM119.56-1.58L110.22-1.58C109.81-1.58 109.46-1.92 109.46-2.33L109.46-5.6C109.46-6.01 109.81-6.36 110.22-6.36L119.56-6.36C119.97-6.36 120.32-6.01 120.32-5.6L120.32-2.33C120.32-1.92 119.97-1.58 119.56-1.58ZM133.82-8.93L133.82-6.44 123.94-6.44 123.94-2.35C123.94-1.07 125 0 126.29 0L135.43 0 135.43-8.93C135.43-10.23 134.36-11.28 133.06-11.28L123.94-11.28 123.94-9.69 133.06-9.69C133.47-9.69 133.82-9.34 133.82-8.93ZM125.53-2.35L125.53-4.84 133.82-4.84 133.82-1.6 126.29-1.6C125.88-1.6 125.53-1.94 125.53-2.35ZM146.09-11.28L139.32-11.28C138.04-11.28 136.97-10.22 136.97-8.93L136.97-7.2C136.97-5.91 138.04-4.84 139.32-4.84L146.09-4.84C146.5-4.84 146.85-4.5 146.85-4.09L146.85-2.35C146.85-1.94 146.5-1.6 146.09-1.6L139.32-1.6C138.91-1.6 138.56-1.94 138.56-2.35L138.56-2.51 136.97-2.51 136.97-2.35C136.97-1.07 138.04 0 139.32 0L146.09 0C147.4 0 148.47-1.06 148.47-2.35L148.47-4.09C148.47-5.38 147.4-6.44 146.09-6.44L139.32-6.44C138.91-6.44 138.56-6.79 138.56-7.2L138.56-8.93C138.56-9.34 138.91-9.69 139.32-9.69L146.09-9.69C146.5-9.69 146.85-9.34 146.85-8.93L146.85-8.77 148.47-8.77 148.47-8.93C148.47-10.23 147.4-11.28 146.09-11.28ZM150.39 0L151.99 0 151.99-11.28 150.39-11.28ZM150.39-14.98L150.39-13.38 151.99-13.38 151.99-14.98ZM155.72-2.35L155.72-8.93C155.72-9.34 156.07-9.69 156.48-9.69L165.59-9.69 165.59-11.28 156.48-11.28C155.19-11.28 154.13-10.22 154.13-8.93L154.13-2.35C154.13-1.07 155.19 0 156.48 0L165.62 0 165.62-1.6 156.48-1.6C156.07-1.6 155.72-1.94 155.72-2.35ZM176.71-11.28L169.94-11.28C168.66-11.28 167.59-10.22 167.59-8.93L167.59-7.2C167.59-5.91 168.66-4.84 169.94-4.84L176.71-4.84C177.12-4.84 177.47-4.5 177.47-4.09L177.47-2.35C177.47-1.94 177.12-1.6 176.71-1.6L169.94-1.6C169.53-1.6 169.18-1.94 169.18-2.35L169.18-2.51 167.59-2.51 167.59-2.35C167.59-1.07 168.66 0 169.94 0L176.71 0C178.01 0 179.09-1.06 179.09-2.35L179.09-4.09C179.09-5.38 178.01-6.44 176.71-6.44L169.94-6.44C169.53-6.44 169.18-6.79 169.18-7.2L169.18-8.93C169.18-9.34 169.53-9.69 169.94-9.69L176.71-9.69C177.12-9.69 177.47-9.34 177.47-8.93L177.47-8.77 179.09-8.77 179.09-8.93C179.09-10.23 178.01-11.28 176.71-11.28Z" transform="translate(-1.1100000143051147, 14.979999542236328)"></path></g>
 </svg>