<?xml version="1.0" ?><!-- Uploaded to: SVG Repo, www.svgrepo.com, Generator: SVG Repo Mixer Tools -->
<svg width="10px" height="10px" viewBox="0 0 24 24" fill="none" xmlns="http://www.w3.org/2000/svg"><circle cx="12" cy="12" r="9" stroke="#000000" stroke-linecap="round" stroke-linejoin="round" stroke-width="2"/><path d="M8 4V6C8 7.10457 8.89543 8 10 8H11C12.1046 8 13 8.89543 13 10V10C13 11.1046 13.8954 12 15 12V12C16.1046 12 17 11.1046 17 10V10C17 8.89543 17.8954 8 19 8H20M20 16H17C15.8954 16 15 16.8954 15 18V20M11 20V18C11 16.8954 10.1046 16 9 16V16C7.89543 16 7 15.1046 7 14V14C7 12.8954 6.10457 12 5 12H3" stroke="#000000" stroke-linecap="round" stroke-linejoin="round" stroke-width="2"/></svg>