<?xml version="1.0" encoding="utf-8"?>
<svg viewBox="16.274 10.559 52.113 57.651" width="100" height="100" xmlns="http://www.w3.org/2000/svg">
  <path opacity=".5" d="M 24.68 57.556 L 50.557 42.852 L 43.631 38.615 L 25.045 49.631 L 24.68 49.423 L 24.68 57.556 Z" style="fill: rgb(176, 63, 119);"/>
  <path d="M 24.68 30.141 L 24.68 58.27 L 16.297 54.035 L 16.297 25.566 L 24.68 30.141 Z" style="fill: rgb(141, 50, 95);"/>
  <path d="M 42.153 59.702 L 24.055 50.348 L 16.927 54.178 L 42.391 68.107 L 42.515 68.035 L 42.153 59.702 Z" style="fill: rgb(98, 35, 66);"/>
  <path opacity=".5" d="M 68.387 24.118 L 41.679 10.559 L 34.708 14.8 L 60.408 28.811 L 60.59 28.693 L 68.387 24.118 Z" style="fill: rgb(176, 63, 119);"/>
  <path opacity=".5" d="M 42.337 10.958 C 42.204 10.866 41.944 10.726 41.818 10.63 C 41.817 10.629 41.749 10.572 41.944 10.675 C 41.95 10.678 41.684 10.616 41.679 10.614 L 34.492 15.033 L 34.293 44.375 L 42.675 39.598 L 42.675 11.136 C 42.556 11.086 42.439 11.028 42.337 10.958 Z" style="fill: rgb(176, 63, 119);"/>
  <path d="M 42.203 39.773 L 68.387 24.186 L 60.535 20.221 L 42.573 31.424 L 42.203 31.207 L 42.203 39.773 Z" style="fill: rgb(173, 62, 117);"/>
  <path opacity=".5" d="M 24.824 29.139 L 49.383 14.499 L 41.749 10.571 L 23.997 21.309 L 23.278 21.686 L 23.637 28.497 C 24.124 28.609 24.519 28.837 24.824 29.139 Z M 68.387 53.493 L 68.387 24.187 L 60.203 29.057 L 60.003 58.27 L 68.387 53.493 Z" style="fill: rgb(176, 63, 119);"/>
  <path opacity=".5" d="M 42.509 68.147 L 68.387 53.441 L 61.218 49.228 L 42.874 60.219 L 42.509 60.013 L 42.509 68.147 Z" style="fill: rgb(176, 63, 119);"/>
  <path opacity=".5" d="M 61.557 57.322 L 68.387 53.494 L 43.814 38.875 L 36.453 42.264 L 60.824 57.739 C 61.077 57.511 61.195 57.431 61.557 57.322 Z" style="fill: rgb(176, 63, 119);"/>
  <path opacity=".5" d="M 50.892 63.505 L 50.892 34.578 L 42.709 39.474 L 42.509 68.21 L 50.892 63.505 Z" style="fill: rgb(176, 63, 119);"/>
  <path d="M 42.198 31.145 L 23.533 21.542 L 16.274 25.626 L 42.493 39.983 L 42.675 39.866 L 42.198 31.145 Z" style="fill: rgb(173, 62, 117);"/>
  <path d="M 42.653 39.469 L 42.675 68.107 L 34.293 63.725 L 34.293 35.402 L 42.653 39.469 Z" style="fill: rgb(173, 62, 117);"/>
</svg>