<?xml version="1.0" encoding="utf-8"?>

<!DOCTYPE svg PUBLIC "-//W3C//DTD SVG 1.1//EN" "http://www.w3.org/Graphics/SVG/1.1/DTD/svg11.dtd">
<!-- Uploaded to: SVG Repo, www.svgrepo.com, Generator: SVG Repo Mixer Tools -->
<svg height="800px" width="800px" version="1.1" id="_x32_" xmlns="http://www.w3.org/2000/svg" xmlns:xlink="http://www.w3.org/1999/xlink" 
	 viewBox="0 0 512 512"  xml:space="preserve">
<style type="text/css">
	.st0{fill:#808080;}
</style>
<g>
	<path class="st0" d="M490.237,90.753c-13.382-13.412-32.076-21.764-52.532-21.756H74.295C33.258,69.012,0.015,102.247,0,143.284
		v225.432c0.015,41.036,33.258,74.272,74.295,74.286h363.41c20.456,0.008,39.15-8.344,52.532-21.755
		C503.648,407.866,512,389.171,512,368.716V143.284C512,122.829,503.648,104.135,490.237,90.753z M74.295,107.04h363.41
		c8.701,0.008,16.466,3.136,22.714,8.21L256,269.478L51.58,115.25C57.829,110.175,65.594,107.047,74.295,107.04z M38.042,368.716
		V143.284c0.016-5.826,1.486-11.205,3.894-16.05l141.813,129.998L41.55,384.044C39.365,379.393,38.058,374.252,38.042,368.716z
		 M437.705,404.96H74.295c-8.204-0.007-15.581-2.771-21.637-7.319l150.618-121.825l22.818,21.711
		c16.911,15.529,42.902,15.529,59.813,0l22.818-21.711l150.61,121.825C453.279,402.189,445.901,404.953,437.705,404.96z
		 M473.958,368.716c-0.016,5.535-1.322,10.677-3.508,15.328L328.251,257.233l141.805-129.998c2.415,4.844,3.886,10.217,3.901,16.05
		V368.716z"/>
</g>
</svg>