<svg width="100px" height="100px" viewBox="400 30 1 550" xmlns="http://www.w3.org/2000/svg">

 <g>
  <title>Layer 1</title>
  <g>
   <path stroke-width="2" stroke-linejoin="round" stroke-linecap="round" fill="#E6C79C" stroke="#E6C79C" d="m448,76c-53.184,0 -96,42.816 -96,96l0,64l32,0l0,-64c0,-35.456 28.544,-64 64,-64c35.456,0 64,28.544 64,64l0,64l32,0l0,-64c0,-53.184 -42.816,-96 -96,-96zm-96,32c-53.184,0 -96,42.816 -96,96l0,32l32,0l0,-32c0,-31.45227 22.46817,-57.44806 52.29102,-62.92187c3.40016,-11.94234 8.72917,-23.05564 15.62304,-32.99219c-1.29876,-0.05162 -2.60219,-0.08594 -3.91406,-0.08594zm66.18555,26.34375c-8.76815,6.9416 -15.03701,16.88339 -17.27539,28.31055c9.41568,11.1388 15.08984,25.55184 15.08984,41.3457l0,32l32,0l0,-32c0,-27.47886 -11.43019,-52.18843 -29.81445,-69.65625zm-194.18555,133.65625l0,19.39258l0,108.60742l0,108.40625c0,2.6657 0.52648,5.19846 1.57813,7.59766c1.20187,2.3992 2.77937,4.46446 4.73242,6.19726c2.10328,1.866 4.43038,3.26612 6.98437,4.19922c2.70423,1.0662 5.55976,1.59961 8.56446,1.59961l308.05664,0c6.15962,0 11.34225,-1.93353 15.54882,-5.79883c4.35681,-3.7321 6.53516,-8.33012 6.53516,-13.79492l0,-108.40625l0,-108.60742l0,-19.39258l-22.08398,0l-308.05664,0l-21.85938,0z"/>
  </g>
 </g>
</svg>